<?xml version="1.0" standalone="no"?>
<!DOCTYPE svg PUBLIC "-//W3C//DTD SVG 20010904//EN"
 "http://www.w3.org/TR/2001/REC-SVG-20010904/DTD/svg10.dtd">
<svg version="1.0" xmlns="http://www.w3.org/2000/svg"
 width="250.000000pt" height="250.000000pt" viewBox="0 0 250.000000 250.000000"
 preserveAspectRatio="xMidYMid meet">
<metadata>
Created by potrace 1.14, written by Peter Selinger 2001-2017
</metadata>
<g transform="translate(0.000000,250.000000) scale(0.100000,-0.100000)"
fill="#000000" stroke="none">
<path d="M590 2415 c0 -5 14 -67 32 -137 l32 -127 -25 -21 c-53 -45 -79 -52
-208 -57 -104 -4 -135 -9 -178 -28 -29 -13 -53 -29 -53 -35 0 -6 -20 -19 -45
-30 -49 -21 -66 -49 -58 -93 7 -38 -3 -71 -33 -106 l-25 -30 29 -63 c42 -89
56 -157 48 -237 -4 -39 -2 -97 5 -137 6 -38 12 -75 12 -82 1 -39 110 -18 165
32 30 28 36 40 35 72 -1 47 8 54 70 54 63 0 103 18 166 74 63 56 86 66 152 66
28 0 58 4 68 9 15 9 20 0 40 -66 l22 -76 54 7 c46 5 56 3 67 -13 12 -17 217
-121 239 -121 7 0 8 7 4 18 -37 90 -122 310 -140 362 -46 129 -85 204 -140
261 -30 31 -57 69 -61 84 -13 53 -273 451 -274 420z m95 -400 c12 -54 12 -57
-9 -64 -19 -8 -21 -5 -24 37 -3 47 5 98 14 89 3 -3 11 -31 19 -62z m-146 -63
c5 -10 27 -70 49 -134 l40 -116 -39 -6 c-25 -4 -37 -10 -33 -17 9 -14 -14 -29
-45 -29 -20 0 -22 -3 -13 -12 21 -21 13 -34 -29 -48 -23 -8 -62 -33 -88 -55
-77 -69 -141 -115 -162 -115 -16 0 -19 7 -19 49 0 40 4 53 24 68 13 10 26 29
30 41 4 12 12 22 17 22 5 0 9 7 9 15 0 11 -12 7 -46 -15 -26 -16 -50 -27 -54
-25 -5 3 -25 48 -45 101 -36 92 -37 97 -19 107 11 6 51 41 90 78 76 72 140
103 172 82 20 -12 57 -111 67 -176 7 -45 6 -46 -21 -52 -54 -11 -77 -20 -81
-31 -3 -8 13 -11 51 -8 33 2 58 0 62 -7 4 -7 11 -2 18 13 10 19 8 39 -9 108
-12 47 -29 99 -38 117 -24 45 -22 51 21 56 75 8 81 7 91 -11z m164 -94 c18
-17 32 -52 52 -131 16 -59 26 -110 22 -113 -9 -9 -85 128 -101 185 -25 87 -19
101 27 59z"/>
<path d="M307 1926 c-24 -9 -66 -42 -111 -89 -68 -70 -72 -76 -61 -98 7 -13
21 -50 31 -81 10 -32 21 -58 25 -58 4 0 36 24 71 53 76 65 98 77 137 77 37 0
39 10 12 95 -24 79 -42 115 -55 115 -6 -1 -28 -7 -49 -14z"/>
<path d="M530 1745 c0 -8 7 -15 15 -15 8 0 15 7 15 15 0 8 -7 15 -15 15 -8 0
-15 -7 -15 -15z"/>
<path d="M1515 2298 c-60 -33 -165 -87 -232 -120 -68 -32 -123 -64 -123 -69 0
-6 21 -63 46 -127 25 -64 50 -127 55 -140 l9 -23 42 25 c58 33 207 84 293 101
108 21 108 21 -120 -75 -49 -21 -116 -49 -147 -64 l-58 -26 22 -45 c15 -31 25
-42 33 -35 7 6 93 43 191 84 98 41 205 86 237 100 56 25 67 23 47 -12 -10 -18
-39 -119 -61 -212 -18 -75 -18 -253 0 -315 23 -78 67 -181 107 -247 43 -70 37
-85 -22 -69 -22 6 -51 11 -66 11 -18 0 -28 5 -28 15 0 18 21 19 73 4 22 -6 40
-9 42 -7 2 2 -12 28 -30 57 -43 67 -79 177 -100 301 -16 94 -14 153 7 235 18
67 46 210 42 214 -2 2 -34 -10 -71 -27 -38 -17 -86 -38 -108 -46 -155 -58
-260 -106 -258 -118 2 -7 27 -71 57 -141 l53 -129 84 -67 c127 -102 147 -136
38 -63 -73 48 -449 403 -491 462 -30 43 -28 42 35 -20 l67 -64 55 19 c30 10
55 24 55 30 0 16 -62 187 -89 245 -31 67 -121 301 -121 315 0 8 -18 10 -58 7
-45 -3 -70 1 -110 18 -29 13 -55 20 -58 17 -9 -9 56 -68 92 -83 18 -8 56 -14
83 -14 l49 0 16 -47 c19 -55 20 -53 -74 -84 -36 -12 -67 -23 -69 -25 -6 -6
154 -463 241 -685 l41 -106 91 -33 c99 -35 116 -45 116 -67 0 -15 31 -63 69
-105 27 -30 25 -33 -12 -19 -17 7 -36 32 -57 75 -22 44 -40 68 -58 75 -15 5
-92 35 -172 66 -80 31 -165 68 -189 81 -24 13 -49 24 -57 24 -7 0 -14 8 -16
17 -2 14 -14 16 -65 14 -68 -3 -109 13 -141 54 -24 30 -32 32 -32 5 0 -28 -46
-118 -82 -159 -19 -21 -27 -39 -23 -50 13 -31 37 -166 39 -221 1 -30 5 -61 9
-67 5 -7 3 -38 -2 -69 -9 -45 -8 -61 4 -84 8 -16 15 -46 15 -66 0 -20 9 -51
19 -68 14 -22 23 -62 28 -130 l9 -98 -53 -24 c-30 -13 -89 -31 -131 -40 -72
-15 -88 -15 -190 -1 -94 12 -121 13 -174 2 -35 -7 -89 -16 -121 -20 l-57 -7 0
-169 0 -169 1250 0 1250 0 -2 223 -3 222 -95 9 c-114 10 -188 9 -215 -3 -11
-5 -40 -15 -65 -22 -25 -7 -51 -21 -58 -31 -9 -13 -21 -16 -38 -12 -14 4 -31
1 -39 -6 -10 -9 -31 -10 -67 -6 -55 8 -77 17 -103 42 -15 15 -18 15 -40 -6
-13 -12 -29 -35 -35 -51 -23 -55 -191 -118 -318 -119 -45 0 -68 -8 -136 -45
-80 -43 -86 -45 -167 -45 -94 0 -120 9 -237 82 l-72 45 -113 -4 c-94 -4 -131
-1 -227 20 -175 38 -226 62 -95 45 39 -5 90 -6 115 -3 53 7 170 42 255 76 27
10 38 8 97 -20 37 -17 72 -31 77 -31 6 0 17 -14 26 -30 15 -28 45 -42 45 -20
0 5 -18 57 -40 115 -51 136 -56 165 -36 203 18 35 32 46 46 37 6 -4 2 -18 -11
-36 l-21 -30 26 -84 c14 -46 39 -113 54 -149 26 -60 29 -64 44 -50 15 15 18
15 39 0 27 -19 73 -21 118 -5 23 8 29 14 20 20 -25 15 2 23 37 10 19 -7 64
-17 100 -22 77 -11 94 -1 94 54 0 49 -22 104 -80 203 -28 47 -48 89 -45 93 12
11 53 -50 106 -158 47 -97 51 -110 46 -157 -4 -41 -2 -54 10 -58 28 -11 67 -6
111 15 l44 22 -6 44 c-8 59 -53 163 -104 242 -42 65 -48 91 -12 55 29 -29 119
-201 137 -264 l17 -55 24 23 c13 14 21 31 18 39 -3 8 -1 23 4 33 7 14 2 34
-21 84 -45 96 -29 105 20 11 38 -73 43 -78 25 -27 -4 9 11 0 32 -20 39 -37 98
-68 130 -68 14 0 14 3 4 15 -19 23 -7 27 29 9 25 -12 35 -14 40 -5 4 6 15 9
24 5 10 -3 17 -1 17 5 0 6 7 11 16 11 12 0 15 6 10 25 -8 30 -5 30 36 5 18
-11 44 -20 57 -20 24 0 25 6 6 65 -8 26 33 89 61 93 12 2 26 -4 33 -12 10 -12
9 -17 -8 -25 -18 -10 -19 -13 -6 -38 8 -15 30 -35 50 -44 25 -12 33 -14 25 -5
-6 8 -21 17 -34 20 -30 7 -41 45 -18 62 13 10 15 17 6 31 -14 23 -50 28 -80
12 -19 -10 -26 -9 -39 1 -11 9 -13 16 -5 24 12 12 13 46 1 65 -7 12 -13 12
-24 3 -21 -18 -28 -3 -11 24 15 22 14 26 -6 59 -25 41 -22 68 16 124 33 48 13
53 -64 14 -31 -15 -60 -29 -63 -31 -4 -2 7 31 24 73 28 68 34 76 54 72 18 -3
24 1 27 17 2 11 9 50 16 85 6 35 10 64 8 66 -2 1 -29 -10 -62 -26 -92 -45 -98
-46 -90 -12 15 65 79 243 109 303 19 36 59 101 90 145 68 96 60 103 -54 50
-44 -21 -84 -34 -90 -30 -6 3 -25 33 -41 65 -33 66 -39 137 -17 200 17 45 82
141 142 208 26 28 45 52 42 52 -2 0 -78 -35 -168 -79 -90 -43 -185 -88 -211
-99 l-48 -21 -35 46 c-47 62 -68 137 -63 222 3 36 8 74 13 84 4 9 3 17 -1 16
-5 0 -58 -27 -119 -61z m-85 -494 c15 -37 12 -42 -10 -15 -22 26 -26 41 -10
41 6 0 15 -12 20 -26z m-200 -34 c0 -11 -59 -44 -66 -37 -6 6 45 47 57 47 5 0
9 -4 9 -10z m694 -126 c25 -4 46 -9 46 -13 -1 -7 -202 -103 -206 -98 -2 2 -1
26 3 55 4 35 11 52 22 55 26 7 85 7 135 1z m-944 -320 c0 -9 15 -37 33 -63 92
-129 123 -201 86 -201 -6 0 -9 6 -6 13 5 14 -13 46 -90 164 -49 76 -58 103
-32 103 5 0 9 -7 9 -16z m1035 -271 c-5 -10 -21 -52 -36 -93 -19 -50 -28 -66
-28 -49 -1 14 -4 47 -7 72 -6 44 -5 47 27 66 42 26 53 26 44 4z m-971 -32
c-12 -9 -81 -39 -154 -66 -154 -56 -179 -73 -187 -133 -7 -54 -20 -54 -28 2
-11 73 6 93 110 133 101 38 242 82 265 82 11 0 9 -5 -6 -18z m190 -23 c18 -26
21 -48 6 -48 -15 0 -50 38 -50 55 0 22 27 18 44 -7z m63 -24 c17 -17 22 -29
15 -36 -11 -11 -52 6 -52 22 0 4 -3 15 -6 24 -9 24 14 19 43 -10z m422 -109
c123 -75 268 -85 277 -20 3 20 64 79 73 70 2 -3 -9 -24 -26 -48 -16 -23 -32
-50 -36 -59 -10 -28 -81 -44 -134 -30 -108 29 -177 66 -241 129 -38 37 -61 67
-56 74 4 7 23 -7 53 -39 25 -28 66 -63 90 -77z m-341 77 c18 -24 15 -34 -10
-26 -25 7 -38 22 -38 41 0 16 31 6 48 -15z m-106 -26 c15 -22 8 -34 -14 -28
-25 6 -38 20 -38 40 0 16 40 6 52 -12z m166 8 c25 -17 29 -34 8 -34 -16 0 -46
26 -46 41 0 13 13 11 38 -7z m-104 -20 c21 -21 20 -34 -2 -34 -21 0 -42 18
-42 37 0 18 25 16 44 -3z m167 -17 c-9 -9 -14 -8 -21 3 -16 24 -11 31 11 19
16 -8 18 -14 10 -22z m-96 -9 c8 -13 11 -24 6 -26 -16 -5 -51 18 -51 33 0 23
27 18 45 -7z m56 -8 c26 -14 24 -32 -3 -28 -13 2 -24 11 -26 21 -4 20 2 21 29
7z m56 -36 c-9 -9 -28 6 -21 18 4 6 10 6 17 -1 6 -6 8 -13 4 -17z"/>
<path d="M887 2023 c-10 -3 -17 -8 -15 -11 6 -13 92 -121 95 -118 1 1 -7 32
-18 69 -19 65 -24 70 -62 60z"/>
<path d="M1252 1647 l-53 -20 82 -76 c137 -126 134 -126 77 1 -27 62 -51 114
-52 114 0 1 -25 -8 -54 -19z"/>
<path d="M2337 500 c7 -7 38 -15 70 -16 57 -3 58 -3 13 6 -25 4 -56 11 -70 15
-20 6 -23 5 -13 -5z"/>
</g>
</svg>
